<svg xmlns="http://www.w3.org/2000/svg" xmlns:xlink="http://www.w3.org/1999/xlink" width="1920" zoomAndPan="magnify" viewBox="0 0 1440 809.999993" height="1080" preserveAspectRatio="xMidYMid meet" version="1.0"><defs><g/><clipPath id="d1b99bb3c3"><path d="M 172.722656 293.160156 L 394.527344 293.160156 L 394.527344 566.953125 L 172.722656 566.953125 Z M 172.722656 293.160156 " clip-rule="nonzero"/></clipPath><clipPath id="66d71e9550"><path d="M 246.699219 559.75 C 258.070312 563.617188 270.996094 566.152344 283.683594 566.152344 C 296.375 566.152344 308.582031 563.976562 319.835938 560.109375 C 320.074219 559.988281 320.3125 559.988281 320.554688 559.871094 C 362.808594 544.402344 393.929688 503.554688 394.527344 455.820312 L 394.527344 293.160156 L 172.722656 293.160156 L 172.722656 455.699219 C 173.320312 503.796875 203.964844 544.644531 246.699219 559.75 Z M 246.699219 559.75 " clip-rule="nonzero"/></clipPath></defs><g clip-path="url(#d1b99bb3c3)"><g clip-path="url(#66d71e9550)"><path fill="#e11d47" d="M 172.722656 293.160156 L 394.527344 293.160156 L 394.527344 566.085938 L 172.722656 566.085938 Z M 172.722656 293.160156 " fill-opacity="1" fill-rule="nonzero"/></g></g><g fill="#ff914d" fill-opacity="1"><g transform="translate(392.152601, 506.094987)"><g><path d="M 136.140625 0 L 106.640625 0 L 95.96875 -32.703125 L 41.625 -32.703125 L 30.953125 0 L 2.140625 0 L 51.140625 -141.875 L 87.140625 -141.875 Z M 67.4375 -112.265625 L 49.203125 -56.28125 L 88.203125 -56.28125 L 69.875 -112.265625 Z M 67.4375 -112.265625 "/></g></g></g><g fill="#ff914d" fill-opacity="1"><g transform="translate(530.419041, 506.094987)"><g><path d="M 46.484375 -141.875 L 46.484375 -23.484375 L 110.234375 -23.484375 L 110.234375 0 L 18.4375 0 L 18.4375 -141.875 Z M 46.484375 -141.875 "/></g></g></g><g fill="#ff914d" fill-opacity="1"><g transform="translate(645.301473, 506.094987)"><g><path d="M 136.140625 0 L 106.640625 0 L 95.96875 -32.703125 L 41.625 -32.703125 L 30.953125 0 L 2.140625 0 L 51.140625 -141.875 L 87.140625 -141.875 Z M 67.4375 -112.265625 L 49.203125 -56.28125 L 88.203125 -56.28125 L 69.875 -112.265625 Z M 67.4375 -112.265625 "/></g></g></g><g fill="#ff914d" fill-opacity="1"><g transform="translate(783.567913, 506.094987)"><g><path d="M 44.15625 0 L 18.4375 0 L 18.4375 -141.875 L 55.125 -141.875 L 91.015625 -37.546875 L 93.0625 -37.546875 L 128.765625 -141.875 L 164.578125 -141.875 L 164.578125 0 L 137.984375 0 L 137.984375 -93.734375 L 135.5625 -94.125 L 102.765625 0 L 79.375 0 L 46.578125 -94.125 L 44.15625 -93.734375 Z M 44.15625 0 "/></g></g></g><g fill="#ff914d" fill-opacity="1"><g transform="translate(966.661789, 506.094987)"><g><path d="M 136.140625 0 L 106.640625 0 L 95.96875 -32.703125 L 41.625 -32.703125 L 30.953125 0 L 2.140625 0 L 51.140625 -141.875 L 87.140625 -141.875 Z M 67.4375 -112.265625 L 49.203125 -56.28125 L 88.203125 -56.28125 L 69.875 -112.265625 Z M 67.4375 -112.265625 "/></g></g></g><g fill="#ff914d" fill-opacity="1"><g transform="translate(1104.928229, 506.094987)"><g><path d="M 46.484375 0 L 18.4375 0 L 18.4375 -141.875 L 46.484375 -141.875 Z M 46.484375 0 "/></g></g></g><g fill="#ff914d" fill-opacity="1"><g transform="translate(1169.937714, 506.094987)"><g><path d="M 18.4375 0 L 18.4375 -141.875 L 46.484375 -141.875 L 46.484375 -83.9375 L 49.59375 -83.9375 L 96.9375 -141.875 L 125.671875 -141.875 L 125.671875 -139.4375 L 73.453125 -74.90625 L 131.09375 -2.421875 L 131.09375 0 L 99.375 0 L 49.59375 -61.234375 L 46.484375 -61.234375 L 46.484375 0 Z M 18.4375 0 "/></g></g></g><g fill="#ff914d" fill-opacity="1"><g transform="translate(222.630817, 486.213341)"><g><path d="M 62.90625 2.03125 C 53.070312 2.03125 44.316406 0.820312 36.640625 -1.59375 C 28.972656 -4.019531 22.582031 -7.207031 17.46875 -11.15625 C 12.363281 -15.101562 8.453125 -19.441406 5.734375 -24.171875 L 21.15625 -43 L 23.59375 -43 C 27.863281 -36.65625 33.28125 -31.609375 39.84375 -27.859375 C 46.414062 -24.109375 54.101562 -22.234375 62.90625 -22.234375 C 70.414062 -22.234375 76.078125 -23.816406 79.890625 -26.984375 C 83.710938 -30.160156 85.625 -34.53125 85.625 -40.09375 C 85.625 -43.457031 85.007812 -46.269531 83.78125 -48.53125 C 82.550781 -50.800781 80.507812 -52.742188 77.65625 -54.359375 C 74.8125 -55.984375 70.960938 -57.375 66.109375 -58.53125 L 47.859375 -62.71875 C 35.109375 -65.625 25.609375 -70.457031 19.359375 -77.21875 C 13.117188 -83.988281 10 -92.773438 10 -103.578125 C 10 -111.609375 12.003906 -118.664062 16.015625 -124.75 C 20.023438 -130.832031 25.863281 -135.554688 33.53125 -138.921875 C 41.207031 -142.285156 50.382812 -143.96875 61.0625 -143.96875 C 72 -143.96875 81.363281 -142.523438 89.15625 -139.640625 C 96.957031 -136.765625 103.546875 -132.347656 108.921875 -126.390625 L 95.03125 -107.359375 L 92.609375 -107.359375 C 88.597656 -111.566406 84.003906 -114.722656 78.828125 -116.828125 C 73.648438 -118.929688 67.726562 -119.984375 61.0625 -119.984375 C 53.363281 -119.984375 47.503906 -118.625 43.484375 -115.90625 C 39.472656 -113.1875 37.46875 -109.429688 37.46875 -104.640625 C 37.46875 -100.179688 38.875 -96.625 41.6875 -93.96875 C 44.507812 -91.3125 49.378906 -89.238281 56.296875 -87.75 L 74.9375 -83.875 C 88.726562 -80.957031 98.726562 -76.019531 104.9375 -69.0625 C 111.15625 -62.113281 114.265625 -53.039062 114.265625 -41.84375 C 114.265625 -32.976562 112.351562 -25.257812 108.53125 -18.6875 C 104.707031 -12.113281 98.945312 -7.015625 91.25 -3.390625 C 83.550781 0.222656 74.101562 2.03125 62.90625 2.03125 Z M 62.90625 2.03125 "/></g></g></g><g fill="#000000" fill-opacity="1"><g transform="translate(449.613766, 340.464994)"><g><path d="M 9.359375 0.3125 C 8.015625 0.3125 6.804688 0.128906 5.734375 -0.234375 C 4.660156 -0.609375 3.769531 -1.09375 3.0625 -1.6875 C 2.351562 -2.28125 1.820312 -2.929688 1.46875 -3.640625 L 2.84375 -5.3125 L 3.203125 -5.3125 C 4.535156 -3.082031 6.585938 -1.96875 9.359375 -1.96875 C 10.972656 -1.96875 12.171875 -2.300781 12.953125 -2.96875 C 13.742188 -3.644531 14.140625 -4.582031 14.140625 -5.78125 C 14.140625 -6.488281 14.007812 -7.085938 13.75 -7.578125 C 13.488281 -8.066406 13.0625 -8.484375 12.46875 -8.828125 C 11.875 -9.171875 11.0625 -9.472656 10.03125 -9.734375 L 7.53125 -10.34375 C 5.664062 -10.789062 4.289062 -11.503906 3.40625 -12.484375 C 2.519531 -13.460938 2.078125 -14.707031 2.078125 -16.21875 C 2.078125 -17.28125 2.347656 -18.226562 2.890625 -19.0625 C 3.441406 -19.894531 4.242188 -20.546875 5.296875 -21.015625 C 6.359375 -21.484375 7.617188 -21.71875 9.078125 -21.71875 C 10.691406 -21.71875 12.050781 -21.488281 13.15625 -21.03125 C 14.269531 -20.582031 15.160156 -19.90625 15.828125 -19 L 14.59375 -17.34375 L 14.21875 -17.34375 C 13.601562 -18.09375 12.875 -18.644531 12.03125 -19 C 11.195312 -19.351562 10.210938 -19.53125 9.078125 -19.53125 C 7.597656 -19.53125 6.476562 -19.238281 5.71875 -18.65625 C 4.957031 -18.082031 4.578125 -17.289062 4.578125 -16.28125 C 4.578125 -15.3125 4.851562 -14.539062 5.40625 -13.96875 C 5.96875 -13.394531 6.910156 -12.953125 8.234375 -12.640625 L 10.796875 -12.03125 C 12.878906 -11.539062 14.382812 -10.789062 15.3125 -9.78125 C 16.25 -8.769531 16.71875 -7.476562 16.71875 -5.90625 C 16.71875 -4.695312 16.445312 -3.625 15.90625 -2.6875 C 15.363281 -1.757812 14.539062 -1.023438 13.4375 -0.484375 C 12.332031 0.046875 10.972656 0.3125 9.359375 0.3125 Z M 9.359375 0.3125 "/></g></g></g><g fill="#000000" fill-opacity="1"><g transform="translate(467.961093, 340.464994)"><g><path d="M 5.75 -10.09375 L 5.75 -2.078125 L 16.671875 -2.078125 L 16.671875 0 L 3.234375 0 L 3.234375 -21.421875 L 16.4375 -21.421875 L 16.4375 -19.34375 L 5.75 -19.34375 L 5.75 -12.171875 L 15.171875 -12.171875 L 15.171875 -10.09375 Z M 5.75 -10.09375 "/></g></g></g><g fill="#000000" fill-opacity="1"><g transform="translate(486.044852, 340.464994)"><g><path d="M 5.75 -21.421875 L 5.75 -2.078125 L 16.0625 -2.078125 L 16.0625 0 L 3.234375 0 L 3.234375 -21.421875 Z M 5.75 -21.421875 "/></g></g></g><g fill="#000000" fill-opacity="1"><g transform="translate(503.015764, 340.464994)"><g><path d="M 15.828125 -21.421875 L 15.828125 -19.34375 L 5.75 -19.34375 L 5.75 -11.546875 L 14.8125 -11.546875 L 14.8125 -9.453125 L 5.75 -9.453125 L 5.75 0 L 3.234375 0 L 3.234375 -21.421875 Z M 15.828125 -21.421875 "/></g></g></g><g fill="#000000" fill-opacity="1"><g transform="translate(519.986676, 340.464994)"><g/></g></g><g fill="#000000" fill-opacity="1"><g transform="translate(527.337319, 340.464994)"><g><path d="M 19.28125 0 L 16.578125 0 L 14.609375 -5.875 L 5.484375 -5.875 L 3.484375 0 L 0.84375 0 L 8.328125 -21.421875 L 11.8125 -21.421875 Z M 9.859375 -18.828125 L 6.1875 -7.984375 L 13.890625 -7.984375 L 10.21875 -18.828125 Z M 9.859375 -18.828125 "/></g></g></g><g fill="#000000" fill-opacity="1"><g transform="translate(547.456409, 340.464994)"><g><path d="M 9.359375 0.3125 C 8.015625 0.3125 6.804688 0.128906 5.734375 -0.234375 C 4.660156 -0.609375 3.769531 -1.09375 3.0625 -1.6875 C 2.351562 -2.28125 1.820312 -2.929688 1.46875 -3.640625 L 2.84375 -5.3125 L 3.203125 -5.3125 C 4.535156 -3.082031 6.585938 -1.96875 9.359375 -1.96875 C 10.972656 -1.96875 12.171875 -2.300781 12.953125 -2.96875 C 13.742188 -3.644531 14.140625 -4.582031 14.140625 -5.78125 C 14.140625 -6.488281 14.007812 -7.085938 13.75 -7.578125 C 13.488281 -8.066406 13.0625 -8.484375 12.46875 -8.828125 C 11.875 -9.171875 11.0625 -9.472656 10.03125 -9.734375 L 7.53125 -10.34375 C 5.664062 -10.789062 4.289062 -11.503906 3.40625 -12.484375 C 2.519531 -13.460938 2.078125 -14.707031 2.078125 -16.21875 C 2.078125 -17.28125 2.347656 -18.226562 2.890625 -19.0625 C 3.441406 -19.894531 4.242188 -20.546875 5.296875 -21.015625 C 6.359375 -21.484375 7.617188 -21.71875 9.078125 -21.71875 C 10.691406 -21.71875 12.050781 -21.488281 13.15625 -21.03125 C 14.269531 -20.582031 15.160156 -19.90625 15.828125 -19 L 14.59375 -17.34375 L 14.21875 -17.34375 C 13.601562 -18.09375 12.875 -18.644531 12.03125 -19 C 11.195312 -19.351562 10.210938 -19.53125 9.078125 -19.53125 C 7.597656 -19.53125 6.476562 -19.238281 5.71875 -18.65625 C 4.957031 -18.082031 4.578125 -17.289062 4.578125 -16.28125 C 4.578125 -15.3125 4.851562 -14.539062 5.40625 -13.96875 C 5.96875 -13.394531 6.910156 -12.953125 8.234375 -12.640625 L 10.796875 -12.03125 C 12.878906 -11.539062 14.382812 -10.789062 15.3125 -9.78125 C 16.25 -8.769531 16.71875 -7.476562 16.71875 -5.90625 C 16.71875 -4.695312 16.445312 -3.625 15.90625 -2.6875 C 15.363281 -1.757812 14.539062 -1.023438 13.4375 -0.484375 C 12.332031 0.046875 10.972656 0.3125 9.359375 0.3125 Z M 9.359375 0.3125 "/></g></g></g><g fill="#000000" fill-opacity="1"><g transform="translate(565.803736, 340.464994)"><g><path d="M 9.359375 0.3125 C 8.015625 0.3125 6.804688 0.128906 5.734375 -0.234375 C 4.660156 -0.609375 3.769531 -1.09375 3.0625 -1.6875 C 2.351562 -2.28125 1.820312 -2.929688 1.46875 -3.640625 L 2.84375 -5.3125 L 3.203125 -5.3125 C 4.535156 -3.082031 6.585938 -1.96875 9.359375 -1.96875 C 10.972656 -1.96875 12.171875 -2.300781 12.953125 -2.96875 C 13.742188 -3.644531 14.140625 -4.582031 14.140625 -5.78125 C 14.140625 -6.488281 14.007812 -7.085938 13.75 -7.578125 C 13.488281 -8.066406 13.0625 -8.484375 12.46875 -8.828125 C 11.875 -9.171875 11.0625 -9.472656 10.03125 -9.734375 L 7.53125 -10.34375 C 5.664062 -10.789062 4.289062 -11.503906 3.40625 -12.484375 C 2.519531 -13.460938 2.078125 -14.707031 2.078125 -16.21875 C 2.078125 -17.28125 2.347656 -18.226562 2.890625 -19.0625 C 3.441406 -19.894531 4.242188 -20.546875 5.296875 -21.015625 C 6.359375 -21.484375 7.617188 -21.71875 9.078125 -21.71875 C 10.691406 -21.71875 12.050781 -21.488281 13.15625 -21.03125 C 14.269531 -20.582031 15.160156 -19.90625 15.828125 -19 L 14.59375 -17.34375 L 14.21875 -17.34375 C 13.601562 -18.09375 12.875 -18.644531 12.03125 -19 C 11.195312 -19.351562 10.210938 -19.53125 9.078125 -19.53125 C 7.597656 -19.53125 6.476562 -19.238281 5.71875 -18.65625 C 4.957031 -18.082031 4.578125 -17.289062 4.578125 -16.28125 C 4.578125 -15.3125 4.851562 -14.539062 5.40625 -13.96875 C 5.96875 -13.394531 6.910156 -12.953125 8.234375 -12.640625 L 10.796875 -12.03125 C 12.878906 -11.539062 14.382812 -10.789062 15.3125 -9.78125 C 16.25 -8.769531 16.71875 -7.476562 16.71875 -5.90625 C 16.71875 -4.695312 16.445312 -3.625 15.90625 -2.6875 C 15.363281 -1.757812 14.539062 -1.023438 13.4375 -0.484375 C 12.332031 0.046875 10.972656 0.3125 9.359375 0.3125 Z M 9.359375 0.3125 "/></g></g></g><g fill="#000000" fill-opacity="1"><g transform="translate(584.151063, 340.464994)"><g><path d="M 5.75 -10.09375 L 5.75 -2.078125 L 16.671875 -2.078125 L 16.671875 0 L 3.234375 0 L 3.234375 -21.421875 L 16.4375 -21.421875 L 16.4375 -19.34375 L 5.75 -19.34375 L 5.75 -12.171875 L 15.171875 -12.171875 L 15.171875 -10.09375 Z M 5.75 -10.09375 "/></g></g></g><g fill="#000000" fill-opacity="1"><g transform="translate(602.234821, 340.464994)"><g><path d="M 9.359375 0.3125 C 8.015625 0.3125 6.804688 0.128906 5.734375 -0.234375 C 4.660156 -0.609375 3.769531 -1.09375 3.0625 -1.6875 C 2.351562 -2.28125 1.820312 -2.929688 1.46875 -3.640625 L 2.84375 -5.3125 L 3.203125 -5.3125 C 4.535156 -3.082031 6.585938 -1.96875 9.359375 -1.96875 C 10.972656 -1.96875 12.171875 -2.300781 12.953125 -2.96875 C 13.742188 -3.644531 14.140625 -4.582031 14.140625 -5.78125 C 14.140625 -6.488281 14.007812 -7.085938 13.75 -7.578125 C 13.488281 -8.066406 13.0625 -8.484375 12.46875 -8.828125 C 11.875 -9.171875 11.0625 -9.472656 10.03125 -9.734375 L 7.53125 -10.34375 C 5.664062 -10.789062 4.289062 -11.503906 3.40625 -12.484375 C 2.519531 -13.460938 2.078125 -14.707031 2.078125 -16.21875 C 2.078125 -17.28125 2.347656 -18.226562 2.890625 -19.0625 C 3.441406 -19.894531 4.242188 -20.546875 5.296875 -21.015625 C 6.359375 -21.484375 7.617188 -21.71875 9.078125 -21.71875 C 10.691406 -21.71875 12.050781 -21.488281 13.15625 -21.03125 C 14.269531 -20.582031 15.160156 -19.90625 15.828125 -19 L 14.59375 -17.34375 L 14.21875 -17.34375 C 13.601562 -18.09375 12.875 -18.644531 12.03125 -19 C 11.195312 -19.351562 10.210938 -19.53125 9.078125 -19.53125 C 7.597656 -19.53125 6.476562 -19.238281 5.71875 -18.65625 C 4.957031 -18.082031 4.578125 -17.289062 4.578125 -16.28125 C 4.578125 -15.3125 4.851562 -14.539062 5.40625 -13.96875 C 5.96875 -13.394531 6.910156 -12.953125 8.234375 -12.640625 L 10.796875 -12.03125 C 12.878906 -11.539062 14.382812 -10.789062 15.3125 -9.78125 C 16.25 -8.769531 16.71875 -7.476562 16.71875 -5.90625 C 16.71875 -4.695312 16.445312 -3.625 15.90625 -2.6875 C 15.363281 -1.757812 14.539062 -1.023438 13.4375 -0.484375 C 12.332031 0.046875 10.972656 0.3125 9.359375 0.3125 Z M 9.359375 0.3125 "/></g></g></g><g fill="#000000" fill-opacity="1"><g transform="translate(620.582149, 340.464994)"><g><path d="M 9.359375 0.3125 C 8.015625 0.3125 6.804688 0.128906 5.734375 -0.234375 C 4.660156 -0.609375 3.769531 -1.09375 3.0625 -1.6875 C 2.351562 -2.28125 1.820312 -2.929688 1.46875 -3.640625 L 2.84375 -5.3125 L 3.203125 -5.3125 C 4.535156 -3.082031 6.585938 -1.96875 9.359375 -1.96875 C 10.972656 -1.96875 12.171875 -2.300781 12.953125 -2.96875 C 13.742188 -3.644531 14.140625 -4.582031 14.140625 -5.78125 C 14.140625 -6.488281 14.007812 -7.085938 13.75 -7.578125 C 13.488281 -8.066406 13.0625 -8.484375 12.46875 -8.828125 C 11.875 -9.171875 11.0625 -9.472656 10.03125 -9.734375 L 7.53125 -10.34375 C 5.664062 -10.789062 4.289062 -11.503906 3.40625 -12.484375 C 2.519531 -13.460938 2.078125 -14.707031 2.078125 -16.21875 C 2.078125 -17.28125 2.347656 -18.226562 2.890625 -19.0625 C 3.441406 -19.894531 4.242188 -20.546875 5.296875 -21.015625 C 6.359375 -21.484375 7.617188 -21.71875 9.078125 -21.71875 C 10.691406 -21.71875 12.050781 -21.488281 13.15625 -21.03125 C 14.269531 -20.582031 15.160156 -19.90625 15.828125 -19 L 14.59375 -17.34375 L 14.21875 -17.34375 C 13.601562 -18.09375 12.875 -18.644531 12.03125 -19 C 11.195312 -19.351562 10.210938 -19.53125 9.078125 -19.53125 C 7.597656 -19.53125 6.476562 -19.238281 5.71875 -18.65625 C 4.957031 -18.082031 4.578125 -17.289062 4.578125 -16.28125 C 4.578125 -15.3125 4.851562 -14.539062 5.40625 -13.96875 C 5.96875 -13.394531 6.910156 -12.953125 8.234375 -12.640625 L 10.796875 -12.03125 C 12.878906 -11.539062 14.382812 -10.789062 15.3125 -9.78125 C 16.25 -8.769531 16.71875 -7.476562 16.71875 -5.90625 C 16.71875 -4.695312 16.445312 -3.625 15.90625 -2.6875 C 15.363281 -1.757812 14.539062 -1.023438 13.4375 -0.484375 C 12.332031 0.046875 10.972656 0.3125 9.359375 0.3125 Z M 9.359375 0.3125 "/></g></g></g><g fill="#000000" fill-opacity="1"><g transform="translate(638.929476, 340.464994)"><g><path d="M 5.5625 0 L 3.234375 0 L 3.234375 -21.421875 L 6.96875 -21.421875 L 13.46875 -3.28125 L 13.765625 -3.28125 L 20.265625 -21.421875 L 23.859375 -21.421875 L 23.859375 0 L 21.46875 0 L 21.46875 -17.46875 L 21.109375 -17.53125 L 14.78125 0 L 12.28125 0 L 5.9375 -17.53125 L 5.5625 -17.46875 Z M 5.5625 0 "/></g></g></g><g fill="#000000" fill-opacity="1"><g transform="translate(666.033158, 340.464994)"><g><path d="M 5.75 -10.09375 L 5.75 -2.078125 L 16.671875 -2.078125 L 16.671875 0 L 3.234375 0 L 3.234375 -21.421875 L 16.4375 -21.421875 L 16.4375 -19.34375 L 5.75 -19.34375 L 5.75 -12.171875 L 15.171875 -12.171875 L 15.171875 -10.09375 Z M 5.75 -10.09375 "/></g></g></g><g fill="#000000" fill-opacity="1"><g transform="translate(684.116928, 340.464994)"><g><path d="M 5.703125 0 L 3.234375 0 L 3.234375 -21.421875 L 6.328125 -21.421875 L 16.765625 -5.046875 L 17.140625 -5.109375 L 17.140625 -21.421875 L 19.578125 -21.421875 L 19.578125 0 L 16.953125 0 L 6.0625 -17.5 L 5.703125 -17.453125 Z M 5.703125 0 "/></g></g></g><g fill="#000000" fill-opacity="1"><g transform="translate(706.944914, 340.464994)"><g><path d="M 16.71875 -21.421875 L 16.71875 -19.28125 L 10 -19.28125 L 10 0 L 7.5 0 L 7.5 -19.28125 L 0.796875 -19.28125 L 0.796875 -21.421875 Z M 16.71875 -21.421875 "/></g></g></g><g fill="#000000" fill-opacity="1"><g transform="translate(724.428327, 340.464994)"><g/></g></g><g fill="#000000" fill-opacity="1"><g transform="translate(731.778958, 340.464994)"><g><path d="M 10.171875 -21.421875 C 12.335938 -21.421875 14.195312 -21.03125 15.75 -20.25 C 17.3125 -19.476562 18.515625 -18.296875 19.359375 -16.703125 C 20.203125 -15.109375 20.625 -13.109375 20.625 -10.703125 C 20.625 -8.304688 20.203125 -6.3125 19.359375 -4.71875 C 18.515625 -3.125 17.3125 -1.9375 15.75 -1.15625 C 14.195312 -0.382812 12.335938 0 10.171875 0 L 3.234375 0 L 3.234375 -21.421875 Z M 9.921875 -2.140625 C 11.703125 -2.140625 13.175781 -2.414062 14.34375 -2.96875 C 15.519531 -3.53125 16.410156 -4.441406 17.015625 -5.703125 C 17.628906 -6.960938 17.9375 -8.628906 17.9375 -10.703125 C 17.9375 -12.796875 17.628906 -14.46875 17.015625 -15.71875 C 16.410156 -16.976562 15.519531 -17.882812 14.34375 -18.4375 C 13.175781 -19 11.703125 -19.28125 9.921875 -19.28125 L 5.75 -19.28125 L 5.75 -2.140625 Z M 9.921875 -2.140625 "/></g></g></g><g fill="#000000" fill-opacity="1"><g transform="translate(754.533749, 340.464994)"><g><path d="M 19.28125 0 L 16.578125 0 L 14.609375 -5.875 L 5.484375 -5.875 L 3.484375 0 L 0.84375 0 L 8.328125 -21.421875 L 11.8125 -21.421875 Z M 9.859375 -18.828125 L 6.1875 -7.984375 L 13.890625 -7.984375 L 10.21875 -18.828125 Z M 9.859375 -18.828125 "/></g></g></g><g fill="#000000" fill-opacity="1"><g transform="translate(774.652827, 340.464994)"><g><path d="M 5.703125 0 L 3.234375 0 L 3.234375 -21.421875 L 6.328125 -21.421875 L 16.765625 -5.046875 L 17.140625 -5.109375 L 17.140625 -21.421875 L 19.578125 -21.421875 L 19.578125 0 L 16.953125 0 L 6.0625 -17.5 L 5.703125 -17.453125 Z M 5.703125 0 "/></g></g></g><g fill="#000000" fill-opacity="1"><g transform="translate(797.480813, 340.464994)"><g/></g></g><g fill="#000000" fill-opacity="1"><g transform="translate(804.831445, 340.464994)"><g><path d="M 10.90625 -21.421875 C 12.375 -21.421875 13.632812 -21.15625 14.6875 -20.625 C 15.75 -20.09375 16.554688 -19.335938 17.109375 -18.359375 C 17.660156 -17.378906 17.9375 -16.222656 17.9375 -14.890625 C 17.9375 -13.566406 17.660156 -12.414062 17.109375 -11.4375 C 16.554688 -10.457031 15.75 -9.703125 14.6875 -9.171875 C 13.632812 -8.640625 12.375 -8.375 10.90625 -8.375 L 5.75 -8.375 L 5.75 0 L 3.234375 0 L 3.234375 -21.421875 Z M 10.828125 -10.53125 C 13.804688 -10.53125 15.296875 -11.984375 15.296875 -14.890625 C 15.296875 -17.816406 13.804688 -19.28125 10.828125 -19.28125 L 5.75 -19.28125 L 5.75 -10.53125 Z M 10.828125 -10.53125 "/></g></g></g><g fill="#000000" fill-opacity="1"><g transform="translate(824.350189, 340.464994)"><g><path d="M 5.75 -10.09375 L 5.75 -2.078125 L 16.671875 -2.078125 L 16.671875 0 L 3.234375 0 L 3.234375 -21.421875 L 16.4375 -21.421875 L 16.4375 -19.34375 L 5.75 -19.34375 L 5.75 -12.171875 L 15.171875 -12.171875 L 15.171875 -10.09375 Z M 5.75 -10.09375 "/></g></g></g><g fill="#000000" fill-opacity="1"><g transform="translate(842.433936, 340.464994)"><g><path d="M 5.703125 0 L 3.234375 0 L 3.234375 -21.421875 L 6.328125 -21.421875 L 16.765625 -5.046875 L 17.140625 -5.109375 L 17.140625 -21.421875 L 19.578125 -21.421875 L 19.578125 0 L 16.953125 0 L 6.0625 -17.5 L 5.703125 -17.453125 Z M 5.703125 0 "/></g></g></g><g fill="#000000" fill-opacity="1"><g transform="translate(865.261923, 340.464994)"><g><path d="M 5.75 0 L 3.234375 0 L 3.234375 -21.421875 L 5.75 -21.421875 Z M 5.75 0 "/></g></g></g><g fill="#000000" fill-opacity="1"><g transform="translate(874.267187, 340.464994)"><g><path d="M 5.75 -21.421875 L 5.75 -2.078125 L 16.0625 -2.078125 L 16.0625 0 L 3.234375 0 L 3.234375 -21.421875 Z M 5.75 -21.421875 "/></g></g></g><g fill="#000000" fill-opacity="1"><g transform="translate(891.238088, 340.464994)"><g><path d="M 19.28125 0 L 16.578125 0 L 14.609375 -5.875 L 5.484375 -5.875 L 3.484375 0 L 0.84375 0 L 8.328125 -21.421875 L 11.8125 -21.421875 Z M 9.859375 -18.828125 L 6.1875 -7.984375 L 13.890625 -7.984375 L 10.21875 -18.828125 Z M 9.859375 -18.828125 "/></g></g></g><g fill="#000000" fill-opacity="1"><g transform="translate(911.357166, 340.464994)"><g><path d="M 5.75 0 L 3.234375 0 L 3.234375 -21.421875 L 5.75 -21.421875 Z M 5.75 0 "/></g></g></g><g fill="#000000" fill-opacity="1"><g transform="translate(920.36243, 340.464994)"><g><path d="M 19.28125 0 L 16.578125 0 L 14.609375 -5.875 L 5.484375 -5.875 L 3.484375 0 L 0.84375 0 L 8.328125 -21.421875 L 11.8125 -21.421875 Z M 9.859375 -18.828125 L 6.1875 -7.984375 L 13.890625 -7.984375 L 10.21875 -18.828125 Z M 9.859375 -18.828125 "/></g></g></g><g fill="#000000" fill-opacity="1"><g transform="translate(940.481508, 340.464994)"><g><path d="M 5.703125 0 L 3.234375 0 L 3.234375 -21.421875 L 6.328125 -21.421875 L 16.765625 -5.046875 L 17.140625 -5.109375 L 17.140625 -21.421875 L 19.578125 -21.421875 L 19.578125 0 L 16.953125 0 L 6.0625 -17.5 L 5.703125 -17.453125 Z M 5.703125 0 "/></g></g></g><g fill="#000000" fill-opacity="1"><g transform="translate(963.309495, 340.464994)"><g/></g></g><g fill="#000000" fill-opacity="1"><g transform="translate(970.660126, 340.464994)"><g><path d="M 5.5625 0 L 3.234375 0 L 3.234375 -21.421875 L 6.96875 -21.421875 L 13.46875 -3.28125 L 13.765625 -3.28125 L 20.265625 -21.421875 L 23.859375 -21.421875 L 23.859375 0 L 21.46875 0 L 21.46875 -17.46875 L 21.109375 -17.53125 L 14.78125 0 L 12.28125 0 L 5.9375 -17.53125 L 5.5625 -17.46875 Z M 5.5625 0 "/></g></g></g><g fill="#000000" fill-opacity="1"><g transform="translate(997.763808, 340.464994)"><g><path d="M 19.28125 0 L 16.578125 0 L 14.609375 -5.875 L 5.484375 -5.875 L 3.484375 0 L 0.84375 0 L 8.328125 -21.421875 L 11.8125 -21.421875 Z M 9.859375 -18.828125 L 6.1875 -7.984375 L 13.890625 -7.984375 L 10.21875 -18.828125 Z M 9.859375 -18.828125 "/></g></g></g><g fill="#000000" fill-opacity="1"><g transform="translate(1017.882887, 340.464994)"><g><path d="M 5.703125 0 L 3.234375 0 L 3.234375 -21.421875 L 6.328125 -21.421875 L 16.765625 -5.046875 L 17.140625 -5.109375 L 17.140625 -21.421875 L 19.578125 -21.421875 L 19.578125 0 L 16.953125 0 L 6.0625 -17.5 L 5.703125 -17.453125 Z M 5.703125 0 "/></g></g></g><g fill="#000000" fill-opacity="1"><g transform="translate(1040.710873, 340.464994)"><g><path d="M 10.171875 -21.421875 C 12.335938 -21.421875 14.195312 -21.03125 15.75 -20.25 C 17.3125 -19.476562 18.515625 -18.296875 19.359375 -16.703125 C 20.203125 -15.109375 20.625 -13.109375 20.625 -10.703125 C 20.625 -8.304688 20.203125 -6.3125 19.359375 -4.71875 C 18.515625 -3.125 17.3125 -1.9375 15.75 -1.15625 C 14.195312 -0.382812 12.335938 0 10.171875 0 L 3.234375 0 L 3.234375 -21.421875 Z M 9.921875 -2.140625 C 11.703125 -2.140625 13.175781 -2.414062 14.34375 -2.96875 C 15.519531 -3.53125 16.410156 -4.441406 17.015625 -5.703125 C 17.628906 -6.960938 17.9375 -8.628906 17.9375 -10.703125 C 17.9375 -12.796875 17.628906 -14.46875 17.015625 -15.71875 C 16.410156 -16.976562 15.519531 -17.882812 14.34375 -18.4375 C 13.175781 -19 11.703125 -19.28125 9.921875 -19.28125 L 5.75 -19.28125 L 5.75 -2.140625 Z M 9.921875 -2.140625 "/></g></g></g><g fill="#000000" fill-opacity="1"><g transform="translate(1063.465663, 340.464994)"><g><path d="M 5.75 0 L 3.234375 0 L 3.234375 -21.421875 L 5.75 -21.421875 Z M 5.75 0 "/></g></g></g><g fill="#000000" fill-opacity="1"><g transform="translate(1072.470927, 340.464994)"><g><path d="M 3.234375 0 L 3.234375 -21.421875 L 11.015625 -21.421875 C 12.453125 -21.421875 13.65625 -21.179688 14.625 -20.703125 C 15.601562 -20.234375 16.335938 -19.566406 16.828125 -18.703125 C 17.316406 -17.835938 17.5625 -16.8125 17.5625 -15.625 C 17.5625 -14.300781 17.226562 -13.207031 16.5625 -12.34375 C 15.90625 -11.476562 14.875 -10.832031 13.46875 -10.40625 L 13.46875 -10.09375 C 14.15625 -9.820312 14.71875 -9.390625 15.15625 -8.796875 C 15.601562 -8.210938 16.007812 -7.34375 16.375 -6.1875 L 18.359375 0 L 15.765625 0 L 13.625 -6.546875 C 13.375 -7.316406 13.082031 -7.921875 12.75 -8.359375 C 12.414062 -8.804688 11.992188 -9.125 11.484375 -9.3125 C 10.972656 -9.507812 10.328125 -9.609375 9.546875 -9.609375 L 5.75 -9.609375 L 5.75 0 Z M 10.953125 -11.75 C 12.296875 -11.75 13.289062 -12.054688 13.9375 -12.671875 C 14.59375 -13.296875 14.921875 -14.242188 14.921875 -15.515625 C 14.921875 -16.785156 14.59375 -17.726562 13.9375 -18.34375 C 13.289062 -18.96875 12.296875 -19.28125 10.953125 -19.28125 L 5.75 -19.28125 L 5.75 -11.75 Z M 10.953125 -11.75 "/></g></g></g><g fill="#000000" fill-opacity="1"><g transform="translate(1092.297175, 340.464994)"><g><path d="M 5.75 0 L 3.234375 0 L 3.234375 -21.421875 L 5.75 -21.421875 Z M 5.75 0 "/></g></g></g><g fill="#000000" fill-opacity="1"><g transform="translate(1101.302439, 340.464994)"><g/></g></g><g fill="#000000" fill-opacity="1"><g transform="translate(1108.65307, 340.464994)"><g><path d="M 3.234375 0 L 3.234375 -21.421875 L 5.75 -21.421875 L 5.75 -12.0625 L 6.21875 -12.0625 L 15 -21.421875 L 17.75 -21.421875 L 17.75 -21.046875 L 8.484375 -11.046875 L 18.484375 -0.359375 L 18.484375 0 L 15.59375 0 L 6.21875 -9.859375 L 5.75 -9.859375 L 5.75 0 Z M 3.234375 0 "/></g></g></g><g fill="#000000" fill-opacity="1"><g transform="translate(1127.542183, 340.464994)"><g><path d="M 10.90625 -21.421875 C 12.375 -21.421875 13.632812 -21.15625 14.6875 -20.625 C 15.75 -20.09375 16.554688 -19.335938 17.109375 -18.359375 C 17.660156 -17.378906 17.9375 -16.222656 17.9375 -14.890625 C 17.9375 -13.566406 17.660156 -12.414062 17.109375 -11.4375 C 16.554688 -10.457031 15.75 -9.703125 14.6875 -9.171875 C 13.632812 -8.640625 12.375 -8.375 10.90625 -8.375 L 5.75 -8.375 L 5.75 0 L 3.234375 0 L 3.234375 -21.421875 Z M 10.828125 -10.53125 C 13.804688 -10.53125 15.296875 -11.984375 15.296875 -14.890625 C 15.296875 -17.816406 13.804688 -19.28125 10.828125 -19.28125 L 5.75 -19.28125 L 5.75 -10.53125 Z M 10.828125 -10.53125 "/></g></g></g><g fill="#000000" fill-opacity="1"><g transform="translate(1147.060905, 340.464994)"><g><path d="M 10.90625 -21.421875 C 12.375 -21.421875 13.632812 -21.15625 14.6875 -20.625 C 15.75 -20.09375 16.554688 -19.335938 17.109375 -18.359375 C 17.660156 -17.378906 17.9375 -16.222656 17.9375 -14.890625 C 17.9375 -13.566406 17.660156 -12.414062 17.109375 -11.4375 C 16.554688 -10.457031 15.75 -9.703125 14.6875 -9.171875 C 13.632812 -8.640625 12.375 -8.375 10.90625 -8.375 L 5.75 -8.375 L 5.75 0 L 3.234375 0 L 3.234375 -21.421875 Z M 10.828125 -10.53125 C 13.804688 -10.53125 15.296875 -11.984375 15.296875 -14.890625 C 15.296875 -17.816406 13.804688 -19.28125 10.828125 -19.28125 L 5.75 -19.28125 L 5.75 -10.53125 Z M 10.828125 -10.53125 "/></g></g></g><g fill="#000000" fill-opacity="1"><g transform="translate(1166.579672, 340.464994)"><g><path d="M 5.703125 0 L 3.234375 0 L 3.234375 -21.421875 L 6.328125 -21.421875 L 16.765625 -5.046875 L 17.140625 -5.109375 L 17.140625 -21.421875 L 19.578125 -21.421875 L 19.578125 0 L 16.953125 0 L 6.0625 -17.5 L 5.703125 -17.453125 Z M 5.703125 0 "/></g></g></g></svg>