<svg xmlns="http://www.w3.org/2000/svg" xmlns:xlink="http://www.w3.org/1999/xlink" width="1500" zoomAndPan="magnify" viewBox="0 0 1125 1124.99995" height="1500" preserveAspectRatio="xMidYMid meet" version="1.0"><defs><g/><clipPath id="12f597ce6b"><path d="M 186.113281 112.5 L 886.027344 112.5 L 886.027344 974 L 186.113281 974 Z M 186.113281 112.5 " clip-rule="nonzero"/></clipPath><clipPath id="014be3602d"><path d="M 419.546875 953.722656 C 455.429688 965.925781 496.222656 973.933594 536.261719 973.933594 C 576.300781 973.933594 614.828125 967.066406 650.332031 954.863281 C 651.085938 954.484375 651.84375 954.484375 652.597656 954.101562 C 785.933594 905.292969 884.140625 776.402344 886.027344 625.773438 L 886.027344 112.5 L 186.113281 112.5 L 186.113281 625.394531 C 188.003906 777.164062 284.699219 906.054688 419.546875 953.722656 Z M 419.546875 953.722656 " clip-rule="nonzero"/></clipPath></defs><g clip-path="url(#12f597ce6b)"><g clip-path="url(#014be3602d)"><path fill="#e11d47" d="M 186.113281 112.5 L 886.027344 112.5 L 886.027344 973.722656 L 186.113281 973.722656 Z M 186.113281 112.5 " fill-opacity="1" fill-rule="nonzero"/></g></g><g fill="#ff914d" fill-opacity="1"><g transform="translate(343.601548, 721.679939)"><g><path d="M 198.5 6.4375 C 167.457031 6.4375 139.835938 2.609375 115.640625 -5.046875 C 91.441406 -12.710938 71.273438 -22.769531 55.140625 -35.21875 C 39.003906 -47.675781 26.648438 -61.363281 18.078125 -76.28125 L 66.78125 -135.703125 L 74.4375 -135.703125 C 87.914062 -115.691406 105.019531 -99.765625 125.75 -87.921875 C 146.476562 -76.078125 170.726562 -70.15625 198.5 -70.15625 C 222.1875 -70.15625 240.054688 -75.15625 252.109375 -85.15625 C 264.160156 -95.164062 270.1875 -108.953125 270.1875 -126.515625 C 270.1875 -137.128906 268.242188 -146.007812 264.359375 -153.15625 C 260.484375 -160.3125 254.050781 -166.441406 245.0625 -171.546875 C 236.070312 -176.648438 223.921875 -181.039062 208.609375 -184.71875 L 151.015625 -197.890625 C 110.785156 -207.078125 80.816406 -222.335938 61.109375 -243.671875 C 41.398438 -265.015625 31.546875 -292.742188 31.546875 -326.859375 C 31.546875 -352.179688 37.875 -374.4375 50.53125 -393.625 C 63.195312 -412.820312 81.628906 -427.726562 105.828125 -438.34375 C 130.035156 -448.96875 158.988281 -454.28125 192.6875 -454.28125 C 227.195312 -454.28125 256.753906 -449.734375 281.359375 -440.640625 C 305.972656 -431.554688 326.753906 -417.625 343.703125 -398.84375 L 299.890625 -338.796875 L 292.234375 -338.796875 C 279.578125 -352.066406 265.078125 -362.019531 248.734375 -368.65625 C 232.398438 -375.300781 213.71875 -378.625 192.6875 -378.625 C 168.382812 -378.625 149.898438 -374.332031 137.234375 -365.75 C 124.578125 -357.175781 118.25 -345.332031 118.25 -330.21875 C 118.25 -316.125 122.6875 -304.890625 131.5625 -296.515625 C 140.445312 -288.148438 155.816406 -281.617188 177.671875 -276.921875 L 236.484375 -264.671875 C 279.984375 -255.472656 311.535156 -239.894531 331.140625 -217.9375 C 350.742188 -195.988281 360.546875 -167.351562 360.546875 -132.03125 C 360.546875 -104.050781 354.519531 -79.695312 342.46875 -58.96875 C 330.425781 -38.238281 312.253906 -22.15625 287.953125 -10.71875 C 263.648438 0.71875 233.832031 6.4375 198.5 6.4375 Z M 198.5 6.4375 "/></g></g></g></svg>