<?xml version="1.0" standalone="no"?>
<!DOCTYPE svg PUBLIC "-//W3C//DTD SVG 20010904//EN"
 "http://www.w3.org/TR/2001/REC-SVG-20010904/DTD/svg10.dtd">
<svg version="1.0" xmlns="http://www.w3.org/2000/svg"
 width="500.000000pt" height="500.000000pt" viewBox="0 0 500.000000 500.000000"
 preserveAspectRatio="xMidYMid meet">

<g transform="translate(0.000000,500.000000) scale(0.100000,-0.100000)"
fill="#000000" stroke="none">
<path d="M2173 4515 c-122 -27 -257 -124 -399 -285 -310 -352 -421 -821 -267
-1135 l27 -54 -75 -78 c-101 -106 -151 -174 -193 -263 -49 -103 -62 -194 -42
-290 9 -41 15 -75 13 -76 -1 -1 -29 -22 -63 -47 -197 -145 -266 -363 -304
-972 -15 -244 -28 -320 -62 -362 -37 -47 -38 -104 -3 -155 l25 -36 -15 -124
c-8 -68 -21 -204 -29 -303 -9 -99 -19 -215 -22 -257 l-7 -78 26 0 c20 0 28 6
31 23 5 21 14 153 37 547 6 96 13 177 15 179 8 9 32 -24 69 -94 39 -74 62 -90
57 -40 -5 54 -54 138 -119 205 -35 35 -63 69 -63 75 0 18 14 33 35 36 27 6 60
92 80 205 8 49 19 197 25 329 14 340 52 507 151 655 40 59 143 160 164 160 6
0 27 -20 48 -44 40 -48 142 -106 187 -106 20 0 43 -15 82 -54 61 -59 129 -88
249 -105 56 -8 77 -17 130 -56 35 -26 80 -55 99 -65 32 -16 39 -27 70 -121 33
-96 50 -129 70 -129 8 0 42 42 226 273 60 76 110 133 112 127 3 -7 -3 -57 -12
-113 -72 -466 -111 -960 -123 -1574 l-6 -313 36 0 37 0 1 238 c0 130 2 248 4
262 2 14 9 140 15 280 10 219 48 756 80 1110 5 58 9 119 10 136 0 37 17 60 51
68 23 5 31 -1 66 -52 22 -31 99 -144 172 -249 73 -106 137 -193 142 -193 18 0
26 45 34 180 4 74 10 185 14 245 3 64 10 110 16 110 6 0 22 -9 35 -20 78 -62
93 -135 39 -186 -38 -35 -34 -49 23 -85 104 -66 184 -62 266 11 54 49 107 139
117 200 4 22 9 47 11 55 9 27 22 -10 48 -136 49 -233 83 -497 141 -1094 31
-320 58 -547 87 -737 l22 -143 36 0 37 0 -14 83 c-33 199 -66 455 -113 872
-85 745 -157 1132 -230 1235 -11 15 -20 35 -20 44 0 32 -50 139 -95 202 -86
120 -105 197 -66 273 11 21 60 82 109 135 194 210 196 267 34 751 -73 216
-194 515 -243 598 -59 101 -176 213 -270 260 -116 57 -184 72 -326 69 -182 -4
-217 -4 -348 2 -84 4 -139 1 -182 -9z m764 -507 c143 -53 222 -156 240 -315 5
-49 4 -52 -18 -58 -14 -3 -45 -2 -69 4 -52 11 -125 -2 -134 -25 -4 -11 6 -14
43 -14 26 0 51 -3 54 -6 4 -4 -9 -24 -28 -46 -19 -21 -35 -42 -35 -47 0 -4
-30 -8 -67 -7 -47 0 -78 -5 -100 -17 -30 -16 -32 -16 -38 2 -10 34 -46 71 -86
92 -22 11 -45 31 -51 45 -11 24 -16 26 -64 22 -67 -6 -108 -36 -168 -126 l-45
-67 -53 0 c-29 1 -77 5 -105 9 -45 7 -53 12 -53 30 0 39 52 127 114 193 67 73
120 106 279 175 106 46 209 111 256 162 27 28 36 28 128 -6z m253 -413 c0 -8
-4 -15 -9 -15 -5 0 -11 7 -15 15 -3 9 0 15 9 15 8 0 15 -7 15 -15z m-510 -45
c63 -32 85 -73 85 -156 0 -60 -4 -77 -28 -112 -49 -75 -147 -107 -236 -77 -59
19 -107 69 -117 120 -7 42 11 117 35 139 52 50 107 86 139 91 20 4 42 8 47 10
22 7 37 4 75 -15z m440 -6 c17 -17 31 -23 46 -20 21 6 22 2 29 -87 4 -50 5
-117 3 -147 l-3 -55 -38 -3 c-106 -9 -210 109 -152 172 51 55 93 54 113 -4 14
-38 49 -41 58 -5 13 53 -52 111 -116 102 -47 -6 -49 1 -14 42 31 38 43 38 74
5z m-178 -83 c21 -8 23 -13 20 -75 -2 -39 -8 -64 -13 -60 -6 3 -17 3 -26 0
-13 -6 -11 -12 15 -37 38 -38 41 -72 8 -94 -26 -17 -65 -8 -98 22 -21 19 -48
10 -48 -16 0 -13 15 -26 46 -41 75 -37 145 -14 159 52 5 22 11 28 23 22 62
-26 102 -35 135 -31 l37 5 0 -66 c0 -85 -32 -220 -68 -286 -37 -68 -116 -145
-184 -179 -125 -63 -259 -60 -397 10 -101 50 -100 50 -66 14 43 -46 140 -90
224 -103 40 -6 74 -16 76 -22 2 -6 9 -32 15 -58 7 -26 28 -65 46 -87 19 -21
34 -46 34 -54 0 -8 -49 -61 -108 -118 l-108 -104 -56 0 c-53 1 -63 5 -153 65
-55 38 -98 73 -100 85 -3 11 -12 77 -20 146 -8 69 -22 145 -30 169 -8 23 -15
52 -15 64 0 14 -32 56 -81 110 -83 91 -160 199 -193 274 -19 41 -20 42 -67 42
-26 0 -50 4 -53 9 -3 5 0 45 6 90 14 93 25 101 81 51 40 -35 57 -38 57 -11 0
26 -41 57 -85 65 -34 7 -35 8 -35 54 0 90 50 97 143 22 34 -28 66 -49 72 -47
5 2 10 19 11 38 2 64 -2 61 72 54 37 -4 71 -11 76 -16 6 -5 23 -9 39 -9 28 0
29 -2 23 -31 -22 -111 81 -213 214 -213 135 0 230 94 230 228 0 54 1 56 33 65
42 12 80 13 109 2z m-69 -908 c-3 -27 -7 -50 -9 -52 -7 -8 -35 72 -30 85 3 8
14 14 25 14 19 0 20 -5 14 -47z m51 -260 c3 -10 24 -37 47 -60 l41 -43 -7
-234 c-4 -128 -11 -239 -15 -246 -5 -8 -15 -1 -31 22 -13 18 -81 111 -152 206
-110 147 -128 176 -116 187 96 91 204 185 215 185 7 0 15 -8 18 -17z m-475
-113 c42 -27 84 -55 94 -62 15 -12 10 -22 -60 -113 -163 -210 -263 -335 -271
-335 -9 0 -54 132 -47 139 3 2 26 4 52 3 56 0 90 17 120 63 36 54 46 111 39
215 -4 52 -10 105 -13 118 -3 12 -2 22 2 22 4 0 42 -22 84 -50z"/>
<path d="M2529 3451 c-17 -17 -29 -40 -29 -55 0 -33 8 -33 39 3 41 47 64 48
110 6 22 -20 45 -34 51 -30 19 12 10 46 -19 76 -24 24 -38 29 -76 29 -38 0
-52 -5 -76 -29z"/>
<path d="M2740 3092 c0 -4 4 -12 10 -18 5 -5 13 -31 16 -56 5 -37 2 -56 -14
-86 -17 -34 -19 -43 -8 -58 19 -25 45 -11 63 36 13 33 19 38 34 30 10 -6 36
-10 58 -10 47 0 96 35 86 62 -10 27 -33 29 -75 7 -57 -30 -89 -23 -105 24 -13
39 -41 77 -57 77 -4 0 -8 -4 -8 -8z"/>
<path d="M2603 1683 c-7 -2 -13 -19 -13 -37 0 -26 6 -35 26 -45 33 -15 44 -7
44 33 0 45 -21 64 -57 49z"/>
<path d="M3427 1590 c-10 -80 -9 -479 3 -579 5 -47 14 -151 20 -231 12 -182
65 -546 100 -690 4 -19 11 -47 14 -62 5 -24 11 -28 41 -28 38 0 41 6 25 60
-11 36 -32 147 -75 390 -46 262 -83 580 -106 921 -10 148 -10 170 4 199 13 26
14 31 2 27 -9 -4 -15 3 -17 21 -2 18 -6 8 -11 -28z"/>
<path d="M1617 1388 c-8 -18 -23 -57 -33 -85 -10 -29 -22 -53 -26 -53 -4 0
-15 25 -24 55 -23 73 -39 71 -30 -2 20 -171 20 -176 -12 -274 -80 -241 -127
-534 -155 -971 l-4 -58 38 0 c44 0 41 -13 59 240 11 155 41 381 80 606 32 187
39 211 61 217 21 6 25 39 10 80 -7 19 -2 55 24 148 19 68 33 125 31 126 -2 2
-10 -11 -19 -29z"/>
<path d="M2743 1223 c-40 -2 -73 -7 -73 -10 0 -3 5 -23 12 -44 l11 -39 218 0
c120 0 220 4 223 9 3 5 0 26 -8 47 l-13 39 -149 1 c-82 0 -182 -1 -221 -3z"/>
<path d="M2601 1151 c-15 -27 -14 -64 3 -86 13 -18 15 -17 35 15 27 44 24 84
-6 88 -14 2 -26 -4 -32 -17z"/>
<path d="M2575 706 c-19 -28 -11 -94 11 -103 33 -12 65 58 49 106 -9 28 -41
27 -60 -3z"/>
<path d="M2591 193 c-16 -11 -21 -23 -19 -46 4 -40 33 -43 60 -7 32 43 1 83
-41 53z"/>
</g>
</svg>
